<svg version="1.1" id="Layer_1" xmlns="http://www.w3.org/2000/svg" xmlns:xlink="http://www.w3.org/1999/xlink" x="0px" y="0px" width="1200px" height="1200px" viewBox="0 0 1200 1200" enable-background="new 0 0 1200 1200" xml:space="preserve">
<g>
	<g>
		<path fill="#E4D9C0" d="M790.72,546.57c-35.661,12.586-83.015,2.488-137.411-0.301c0,0-122.531-12.955-178.282,10.702&#10;&#9;&#9;&#9;c-1.496-32.844,1.697-63.066-26.467-88.501c-48.622-43.918-81.138-64.039-82.666-64.981h-8.57&#10;&#9;&#9;&#9;c-2.098,3.551-3.869,8.07-4.949,13.964c-3.017,16.526-0.228,30.862,17.971,47.603c-4.305,15.476-13.914,63.647,43.975,94.12&#10;&#9;&#9;&#9;C483.564,595.642,592,636.875,726.4,635.144c32.858-1.086,62.228-27.01,67.633-55.28c-0.811-0.527-1.837-1.1-2.97-1.69&#10;&#9;&#9;&#9;c9.871-5.308,16.851-11.889,22.544-18.991c8.576-10.682,13.565-21.424,15.866-30.812&#10;&#9;&#9;&#9;C820.681,533.786,807.846,540.525,790.72,546.57z" style="fill: rgb(255, 190, 77);"/>
		<path fill="#E4D9C0" d="M395.298,417.555c38.215,26.708,101.623,73.54,217.576,105.928&#10;&#9;&#9;&#9;c155.261,43.379,199.747-20.103,199.747-20.103l3.473-8.976c-13.84-9.562-39.308-25.139-44.672-14.252&#10;&#9;&#9;&#9;c-7.436,15.094-22.189,24.717-38.155,12.083c-15.892-12.579-10.152-18.634-24.569,2.931c-14.39,21.552-26.561,27.888-38.692,1.831&#10;&#9;&#9;&#9;c-12.056-25.924-8.361-37.109-28.526-14.075c-20.137,22.986-30.068,19.487-38.825-3.816&#10;&#9;&#9;&#9;c-8.717-23.201-19.835-35.707-34.815-14.866c-14.967,20.821-33.052,17.777-42.507-7.799c-9.408-25.474,1.113-31.248-26.28-14.195&#10;&#9;&#9;&#9;c-27.292,16.998-27.345,5.344-34.513-29.498c-7.121-34.668-27.735-21.043-49.199-9.978c-21.397,11.024-19.245,3.675-22.839-17.763&#10;&#9;&#9;&#9;c-1.026-6.122-3.266-9.401-6.464-11.048C382.081,383.477,374.692,403.154,395.298,417.555z" style="fill: rgb(255, 190, 77);"/>
		<path fill="#E4D9C0" d="M627.037,458.144c110.951,25.414,189.138,5.049,201.758-55.495c0,0-26.232-162.061-198.11-189.823&#10;&#9;&#9;&#9;c-121.626-14.262-214.405,65.93-230.297,135.279C419.733,369.335,518.929,433.373,627.037,458.144z M737.505,386.259&#10;&#9;&#9;&#9;c-1.401,2.857-5.793,3.91-9.803,2.347c-4.017-1.555-6.129-5.15-4.747-7.993c1.395-2.856,5.78-3.916,9.79-2.361&#10;&#9;&#9;&#9;C736.767,379.809,738.899,383.396,737.505,386.259z M719.212,335.344c1.388-2.856,5.753-3.923,9.757-2.401&#10;&#9;&#9;&#9;c4.017,1.535,6.129,5.089,4.734,7.946c-1.388,2.85-5.76,3.916-9.77,2.374C719.936,341.741,717.817,338.187,719.212,335.344z&#10;&#9;&#9;&#9; M701.764,302.534c1.382-2.837,5.74-3.916,9.717-2.421c3.983,1.509,6.089,5.036,4.707,7.879c-1.402,2.85-5.747,3.93-9.73,2.414&#10;&#9;&#9;&#9;C702.474,308.891,700.383,305.363,701.764,302.534z M689.506,359.457c1.395-2.843,5.74-3.909,9.723-2.367&#10;&#9;&#9;&#9;c3.989,1.542,6.089,5.109,4.701,7.953c-1.388,2.85-5.747,3.903-9.73,2.36C690.217,365.861,688.125,362.294,689.506,359.457z&#10;&#9;&#9;&#9; M677.892,386.44c-1.382,2.837-5.727,3.882-9.683,2.34c-3.963-1.562-6.048-5.109-4.66-7.953c1.375-2.837,5.72-3.889,9.676-2.333&#10;&#9;&#9;&#9;C677.195,380.037,679.287,383.591,677.892,386.44z M662.637,324.105c1.375-2.824,5.693-3.896,9.643-2.388&#10;&#9;&#9;&#9;c3.95,1.522,6.042,5.05,4.66,7.879c-1.381,2.837-5.713,3.902-9.662,2.381C663.334,330.456,661.255,326.935,662.637,324.105z&#10;&#9;&#9;&#9; M637.055,279.138c1.382-2.824,5.666-3.896,9.575-2.414c3.923,1.482,5.981,4.969,4.614,7.792&#10;&#9;&#9;&#9;c-1.382,2.823-5.679,3.902-9.589,2.407C637.753,285.441,635.687,281.947,637.055,279.138z M623.336,333.841&#10;&#9;&#9;&#9;c1.381-2.823,5.666-3.882,9.582-2.374c3.923,1.515,5.975,5.036,4.593,7.866c-1.368,2.816-5.673,3.869-9.589,2.36&#10;&#9;&#9;&#9;C624.013,340.165,621.967,336.658,623.336,333.841z M585.194,358.84c-1.368,2.81-5.626,3.856-9.495,2.333&#10;&#9;&#9;&#9;c-3.862-1.515-5.894-5.029-4.52-7.825c1.368-2.817,5.619-3.856,9.481-2.347C584.537,352.524,586.569,356.031,585.194,358.84z&#10;&#9;&#9;&#9; M581.164,311.183c-1.375,2.803-5.613,3.862-9.469,2.374c-3.856-1.488-5.867-4.975-4.499-7.778&#10;&#9;&#9;&#9;c1.361-2.789,5.592-3.862,9.455-2.36C580.513,304.907,582.525,308.38,581.164,311.183z M572.929,262.145&#10;&#9;&#9;&#9;c4.09,0.617,7.169,3.494,6.86,6.417c-0.302,2.924-3.869,4.788-7.967,4.158c-4.083-0.63-7.148-3.501-6.84-6.417&#10;&#9;&#9;&#9;C565.285,263.386,568.852,261.535,572.929,262.145z M513.759,278.876c1.355-2.77,5.532-3.836,9.341-2.374&#10;&#9;&#9;&#9;c3.802,1.462,5.793,4.908,4.425,7.684c-1.341,2.79-5.539,3.856-9.341,2.374C514.383,285.099,512.405,281.652,513.759,278.876z&#10;&#9;&#9;&#9; M495.205,318.392c1.355-2.775,5.532-3.829,9.321-2.34c3.796,1.476,5.78,4.936,4.432,7.725c-1.368,2.776-5.552,3.829-9.34,2.34&#10;&#9;&#9;&#9;C495.821,324.629,493.857,321.162,495.205,318.392z" style="fill: rgb(255, 190, 77);"/>
	</g>
	<g>
		<path fill="#E4D9C0" d="M328.463,591.317c-5.841-5.596-11.346-11.466-16.382-17.69c-202.067,29.854-202.067,29.854-202.067,29.854&#10;&#9;&#9;&#9;v23.262L328.463,591.317z" style="fill: rgb(255, 190, 77);"/>
		<path fill="#E4D9C0" d="M351.43,610.568l-241.415,40.871v11.044l247.651-40.16l26.521,18.441L110.015,687.18v77.034l507.46-71.187&#10;&#9;&#9;&#9;C617.474,693.027,451.759,684.28,351.43,610.568z" style="fill: rgb(255, 190, 77);"/>
	</g>
	<g>
		<path fill="#E4D9C0" d="M892.162,564.085l10.381-26.514l180.233-29.498v-16.616l-182.613,30.916&#10;&#9;&#9;&#9;c-27.728,95.886-80.621,127.027-80.621,127.027l263.235-41.199v-76.813L892.162,564.085z" style="fill: rgb(255, 190, 77);"/>
		<path fill="#E4D9C0" d="M1082.776,468.249v-26.226c-33.542,5.271-142.367,22.478-171.388,28.285&#10;&#9;&#9;&#9;c-1.375,9.28-2.998,18.088-4.808,26.514L1082.776,468.249z" style="fill: rgb(255, 190, 77);"/>
	</g>
	<g>
		<path fill="#EA5B0C" d="M1129.983,737.298l-11.346-10.474c18.172-18.306,28.74-43.05,28.74-70.14&#10;&#9;&#9;&#9;c0-51.513-34.682-86.127-86.301-86.127c-6.223,0-12.701,0.509-19.259,1.535l-56.816,8.845&#10;&#9;&#9;&#9;c-11.541,1.797-21.787,6.786-29.994,13.934c-6.692-3.179-14.31-4.976-22.625-4.976c-3.259,0-6.639,0.275-10.018,0.805&#10;&#9;&#9;&#9;l-72.26,11.238c-20.237,3.152-36.592,16.013-44.665,33.407c-15.792-11.922-38.537-18.789-65.869-18.789&#10;&#9;&#9;&#9;c-8.804,0-17.784,0.698-26.688,2.092c-40.421,6.29-74.741,28.485-97.755,59.922c-15.194-17.81-38.302-28.231-66.546-28.231&#10;&#9;&#9;&#9;c-6.216,0-12.693,0.523-19.259,1.542l-56.796,8.852c-12.439,1.931-23.396,7.537-31.885,15.597&#10;&#9;&#9;&#9;c-7.638-4.747-16.818-7.43-27.11-7.43c-3.098,0-6.29,0.242-9.489,0.738c-29.994,4.68-50.151,28.673-50.151,59.733V830.17&#10;&#9;&#9;&#9;c0,14.148-11.386,17.434-16.274,18.199c-2.528,0.402-4.835,0.228-5.72,0c-0.268-0.765-0.617-2.347-0.617-4.895V742.662&#10;&#9;&#9;&#9;c0-31.275-20.694-53.122-50.319-53.122c-3.098,0-6.29,0.255-9.481,0.751c-22.149,3.446-38.9,17.448-46.175,37.015&#10;&#9;&#9;&#9;c-13.412-11.775-31.476-18.615-52.519-18.615c-5.499,0-11.205,0.456-16.978,1.354l-55.657,8.664&#10;&#9;&#9;&#9;C71.089,723.229,50,747.745,50,776.981v160.237c0,29.424,21.9,51.62,50.942,51.62c2.938,0,5.921-0.242,8.865-0.698l58.567-9.119&#10;&#9;&#9;&#9;c41.521-6.464,67.76-26.192,82.687-49.608c18.608,18.427,44.049,28.204,73.715,28.204c7.289,0,14.859-0.604,22.491-1.797&#10;&#9;&#9;&#9;c34.681-5.392,63.676-21.337,84.088-44.431c8.784,13.237,23.402,21.284,41.333,21.284c3.091,0,6.277-0.255,9.495-0.751&#10;&#9;&#9;&#9;c23.792-3.728,41.387-19.594,47.643-41.494l6.511,7.202c5.164,5.633,17.247,18.869,39.737,18.869c3.42,0,6.921-0.282,10.682-0.871&#10;&#9;&#9;&#9;c24.496-3.809,39.529-20.103,46.369-36.478c18.514,13.022,41.213,20.103,66.131,20.103c7.537,0,15.369-0.617,23.282-1.851&#10;&#9;&#9;&#9;c35.017-5.445,64.796-22.625,86.073-47.422c8.992,13.532,24.261,22.088,42.298,22.088c2.924,0,5.901-0.228,8.852-0.684&#10;&#9;&#9;&#9;l74.016-11.534c11.085-1.73,20.814-5.927,28.693-12.003c6.685,3.218,14.317,5.016,22.705,5.016c3.098,0,6.284-0.242,9.482-0.738&#10;&#9;&#9;&#9;c23.798-3.715,41.407-19.58,47.67-41.481l6.518,7.202c5.164,5.646,17.247,18.869,39.744,18.855c3.4,0,6.886-0.268,10.682-0.871&#10;&#9;&#9;&#9;c34.99-5.445,50.728-36.384,50.728-56.622C1150,755.979,1135.562,742.501,1129.983,737.298z" style="fill: rgb(233, 12, 12);"/>
		<g>
			<g>
				<path fill="#E4D9C0" d="M81.375,776.981c0-15.141,11.366-25.361,23.604-27.279l55.657-8.65&#10;&#9;&#9;&#9;&#9;&#9;c35.834-5.593,58.271,13.062,58.271,45.101c0,21.257-14.859,36.103-24.77,43.48c25.361,1.005,41.669,18.561,41.669,44.498&#10;&#9;&#9;&#9;&#9;&#9;c0,32.911-21.27,65.943-72.26,73.883l-58.567,9.119c-12.238,1.905-23.604-4.761-23.604-19.916V776.981z M128.583,827.018&#10;&#9;&#9;&#9;&#9;&#9;l21.565-3.353c13.398-2.092,21.552-10.058,21.552-22.879c0-12.808-7.859-18.293-21.552-16.16l-21.565,3.352V827.018z&#10;&#9;&#9;&#9;&#9;&#9; M128.583,911.509l29.719-4.627c15.732-2.455,28.559-9.978,28.559-25.71s-14.571-19.004-28.559-16.831l-29.719,4.627V911.509z" style="fill: rgb(255, 190, 77);"/>
				<path fill="#E4D9C0" d="M299.897,843.474c0,27.667,19.232,39.536,42.547,35.902c23.302-3.621,42.829-21.511,42.829-49.206&#10;&#9;&#9;&#9;&#9;&#9;V729.372c0-16.603,9.911-26.595,23.598-28.727c13.699-2.133,23.61,4.774,23.61,21.378v100.799&#10;&#9;&#9;&#9;&#9;&#9;c0,54.771-37.591,93.838-90.036,101.992c-52.451,8.167-89.754-19.232-89.754-73.99V750.011c0-16.603,9.918-26.594,23.61-28.713&#10;&#9;&#9;&#9;&#9;&#9;c13.693-2.132,23.597,4.761,23.597,21.364V843.474z" style="fill: rgb(255, 190, 77);"/>
				<path fill="#E4D9C0" d="M453.737,719.005c0-15.141,11.359-25.36,23.604-27.265l56.817-8.851&#10;&#9;&#9;&#9;&#9;&#9;c41.957-6.531,69.342,14.832,69.342,53.578c0,30.591-18.642,55.643-48.361,65.809l41.078,37.873&#10;&#9;&#9;&#9;&#9;&#9;c6.411,6.008,9.911,10.984,9.911,18.856c0,6.706-6.122,22.799-24.187,25.616c-12.237,1.904-16.609-1.784-22.43-8.168&#10;&#9;&#9;&#9;&#9;&#9;l-57.99-64.078l-0.583,0.094v59.707c0,16.603-9.904,26.594-23.598,28.74c-13.693,2.119-23.604-4.774-23.604-21.378V719.005z&#10;&#9;&#9;&#9;&#9;&#9; M500.938,777.505l31.181-4.855c15.443-2.414,24.187-13.961,24.187-27.077c0-13.975-10.783-20.747-24.187-18.669l-31.181,4.855&#10;&#9;&#9;&#9;&#9;&#9;V777.505z" style="fill: rgb(255, 190, 77);"/>
				<path fill="#E4D9C0" d="M787.059,728.004c16.322-2.548,25.066,5.418,25.066,24.931c0,55.643-36.72,104.474-94.415,113.459&#10;&#9;&#9;&#9;&#9;&#9;c-65.266,10.152-101.979-33.059-101.979-92.497c0-62.926,43.412-115.122,101.979-124.242&#10;&#9;&#9;&#9;&#9;&#9;c39.04-6.089,80.427,3.782,80.427,32.924c0,11.655-8.168,21.069-21.277,23.121c-17.187,2.669-25.348-17.609-57.112-12.674&#10;&#9;&#9;&#9;&#9;&#9;c-32.925,5.137-53.317,36.854-53.317,72.984c0,32.039,15.725,62.228,52.445,56.501c24.77-3.849,41.963-22.544,44.29-47.1&#10;&#9;&#9;&#9;&#9;&#9;l-27.097,4.224c-14.859,2.307-23.604-5.07-23.604-18.172c0-13.693,8.744-23.214,23.604-25.522L787.059,728.004z" style="fill: rgb(255, 190, 77);"/>
				<path fill="#E4D9C0" d="M831.33,660.224c0-15.155,11.359-25.374,23.604-27.279l72.259-11.238&#10;&#9;&#9;&#9;&#9;&#9;c14.86-2.32,23.604,5.056,23.604,18.172c0,13.693-8.744,23.201-23.604,25.521l-48.656,7.564v37.592l44.579-6.948&#10;&#9;&#9;&#9;&#9;&#9;c14.859-2.307,23.604,4.774,23.604,18.172c0,13.398-8.745,23.215-23.604,25.522l-44.579,6.947v38.745l50.406-7.846&#10;&#9;&#9;&#9;&#9;&#9;c14.853-2.32,23.597,4.48,23.597,18.172c0,13.116-8.744,23.215-23.597,25.522l-74.01,11.534&#10;&#9;&#9;&#9;&#9;&#9;c-12.244,1.891-23.604-4.774-23.604-19.929V660.224z" style="fill: rgb(255, 190, 77);"/>
				<path fill="#E4D9C0" d="M966.233,639.222c0-15.154,11.365-25.374,23.604-27.279l56.817-8.845&#10;&#9;&#9;&#9;&#9;&#9;c41.956-6.531,69.342,14.84,69.342,53.585c0,30.59-18.641,55.629-48.361,65.795l41.079,37.887&#10;&#9;&#9;&#9;&#9;&#9;c6.41,5.995,9.91,10.984,9.91,18.842c0,6.706-6.115,22.813-24.18,25.616c-12.244,1.904-16.616-1.784-22.436-8.154&#10;&#9;&#9;&#9;&#9;&#9;l-57.991-64.092l-0.576,0.094v59.72c0,16.603-9.911,26.595-23.604,28.727c-13.7,2.133-23.604-4.774-23.604-21.378V639.222z&#10;&#9;&#9;&#9;&#9;&#9; M1013.44,697.708l31.167-4.855c15.45-2.401,24.187-13.961,24.187-27.077c0-13.975-10.776-20.747-24.187-18.669l-31.167,4.855&#10;&#9;&#9;&#9;&#9;&#9;V697.708z" style="fill: rgb(255, 190, 77);"/>
			</g>
		</g>
	</g>
</g>
</svg>